HIERARCHY
ROOT root
{
	OFFSET	0	13.1	24.9
	CHANNELS 6  Xposition Yposition Zposition Xrotation Yrotation Zrotation
	JOINT spine_1
	{
		OFFSET	0	9.99999	0
		CHANNELS 3  Xrotation Yrotation Zrotation
		JOINT spine_2
		{
			OFFSET	0	112	-10
			CHANNELS 3  Xrotation Yrotation Zrotation
			JOINT spine_3
			{
				OFFSET	0	206.5	19.3
				CHANNELS 3  Xrotation Yrotation Zrotation
				JOINT spine_4
				{
					OFFSET	0	110.4	14.6
					CHANNELS 3  Xrotation Yrotation Zrotation
					JOINT neck_1
					{
						OFFSET	0	71.8	-50.3
						CHANNELS 3  Xrotation Yrotation Zrotation
						JOINT neck_2
						{
							OFFSET	0	86.2	-25.8
							CHANNELS 3  Xrotation Yrotation Zrotation
							JOINT head_ee
							{
								OFFSET	0	179.8	-8.7
								CHANNELS 3  Xrotation Yrotation Zrotation
								End Site
								{
									OFFSET	1	0	0
								}
							}
						}
					}
					JOINT left_clavicle
					{
						OFFSET	-43.2	22.4	-70.8
						CHANNELS 3  Xrotation Yrotation Zrotation
						JOINT left_shoulder
						{
							OFFSET	-93.9	-5.79999	48.7
							CHANNELS 3  Xrotation Yrotation Zrotation
							JOINT left_elbow
							{
								OFFSET	-291.4	-30.8	15.2
								CHANNELS 3  Xrotation Yrotation Zrotation
								JOINT left_lowarm_twist
								{
									OFFSET	-110.7	-3.89999	13.6
									CHANNELS 3  Xrotation Yrotation Zrotation
									JOINT left_hand
									{
										OFFSET	-110.7	-3.89999	13.6
										CHANNELS 3  Xrotation Yrotation Zrotation
										JOINT left_ee
										{
											OFFSET	-80.8	-5.10001	12.1
											CHANNELS 3  Xrotation Yrotation Zrotation
											End Site
											{
												OFFSET	1	0	0
											}
										}
									}
								}
							}
						}
					}
					JOINT right_clavicle
					{
						OFFSET	43.2	22.4	-70.8
						CHANNELS 3  Xrotation Yrotation Zrotation
						JOINT right_shoulder
						{
							OFFSET	93.9	-5.79999	48.7
							CHANNELS 3  Xrotation Yrotation Zrotation
							JOINT right_elbow
							{
								OFFSET	291.4	-30.8	15.2
								CHANNELS 3  Xrotation Yrotation Zrotation
								JOINT right_lowarm_twist
								{
									OFFSET	110.7	-3.89999	13.6
									CHANNELS 3  Xrotation Yrotation Zrotation
									JOINT right_hand
									{
										OFFSET	110.7	-3.89999	13.6
										CHANNELS 3  Xrotation Yrotation Zrotation
										JOINT right_ee
										{
											OFFSET	80.8	-5.10001	12.1
											CHANNELS 3  Xrotation Yrotation Zrotation
											End Site
											{
												OFFSET	1	0	0
											}
										}
									}
								}
							}
						}
					}
				}
			}
		}
	}
	JOINT left_hip
	{
		OFFSET	-82.8	-127.5	0.300001
		CHANNELS 3  Xrotation Yrotation Zrotation
		JOINT left_knee
		{
			OFFSET	-28.2	-396.7	2.2
			CHANNELS 3  Xrotation Yrotation Zrotation
			JOINT left_ankle
			{
				OFFSET	-11.7	-411.3	35.4
				CHANNELS 3  Xrotation Yrotation Zrotation
				JOINT left_toes
				{
					OFFSET	0	-60	-88.6
					CHANNELS 3  Xrotation Yrotation Zrotation
					JOINT left_foot_ee
					{
						OFFSET	-22.5	-16.5	-42.2
						CHANNELS 3  Xrotation Yrotation Zrotation
						End Site
						{
							OFFSET	1	0	0
						}
					}
				}
			}
		}
	}
	JOINT right_hip
	{
		OFFSET	82.8	-127.5	0.300001
		CHANNELS 3  Xrotation Yrotation Zrotation
		JOINT right_knee
		{
			OFFSET	28.2	-396.7	2.2
			CHANNELS 3  Xrotation Yrotation Zrotation
			JOINT right_ankle
			{
				OFFSET	11.7	-411.3	35.4
				CHANNELS 3  Xrotation Yrotation Zrotation
				JOINT right_toes
				{
					OFFSET	0	-60	-88.6
					CHANNELS 3  Xrotation Yrotation Zrotation
					JOINT right_foot_ee
					{
						OFFSET	22.5	-16.5	-42.2
						CHANNELS 3  Xrotation Yrotation Zrotation
						End Site
						{
							OFFSET	1	0	0
						}
					}
				}
			}
		}
	}
}
MOTION
Frames: 10
Frame Time: 0.02
2800.94 716.97 -1473.77 -0.773142403802 74.4561143701 0.295981895869 -0.183852 -0.118652 -0.873698 -0.183429 -0.0628183 -0.879477 -0.182227 0.126213 -0.872638 -0.183289 -0.013182 -0.881619 -6.31488 10.3497 2.98317 -6.27997 16.9974 4.99091 -0.0 0.0 -0.0 6.32596 24.0707 11.4365 9.16532 -39.3284 56.0211 2.58036 -51.9543 1.25741 -83.9787 -8.32403 5.20853 -3.60075 25.892 -9.93538 -0.0 0.0 -0.0 6.71804 20.6918 -12.1061 -29.3445 4.87484 -64.9459 0.975723 25.7961 -0.22344 7.68643 -0.206723 0.95936 -0.0588688 -12.0774 -4.60623 0.0 0.0 0.0 -10.8157 22.4697 3.47687 -23.8974 0.229047 3.63359 40.1713 -4.51433 -4.93916 -0.0936969 0.0 0.0 -0.0 0.0 -0.0 37.3663 14.1976 -5.85774 -6.38405 -0.209716 -0.956814 -15.8597 -20.1923 -2.42737 -37.5401 0.0 0.0 0.0 0.0 0.0 
2689.30849326 719.83 -1496.0872489 11.9564990303 82.3202646053 -12.9309750205 -0.26186 0.0115018 -0.249198 -0.261826 0.0273356 -0.247962 -0.261931 0.0799223 -0.236315 -0.262006 0.0415979 -0.245971 -4.03542 10.0317 1.61526 -3.94487 17.1259 3.25399 -0.0 0.0 -0.0 3.14556 22.0273 7.00643 3.3162 -36.3397 58.4488 2.18976 -47.3215 0.959541 -82.5411 -8.14324 5.23832 -3.23163 24.7102 -8.52459 -0.0 0.0 -0.0 7.51174 22.034 -13.7283 -25.3525 5.98305 -65.2197 1.0426 27.3145 -0.253342 7.95606 -0.211625 0.993454 0.310854 -12.9802 -7.30773 0.0 0.0 0.0 -12.2039 21.5238 3.39734 -26.7595 0.154483 4.06644 39.1576 -4.849 -4.85613 0.661417 -0.0 -0.0 -0.0 0.0 -0.0 30.7885 14.2389 -5.80854 -10.1127 -0.282469 -1.52426 -17.8163 -19.5106 -2.72397 -37.4797 0.0 0.0 0.0 0.0 0.0 
2689.82031935 719.83 -1498.51003776 10.3053249895 81.097256648 -11.2624578408 -0.26186 0.0115018 -0.249198 -0.261826 0.0273356 -0.247962 -0.261931 0.0799223 -0.236315 -0.262006 0.0415979 -0.245971 -4.03542 10.0317 1.61526 -3.94487 17.1259 3.25399 -0.0 0.0 -0.0 3.14556 22.0273 7.00643 3.3162 -36.3397 58.4488 2.18976 -47.3215 0.959541 -82.5411 -8.14324 5.23832 -3.23163 24.7102 -8.52459 -0.0 0.0 -0.0 7.51174 22.034 -13.7283 -25.3525 5.98305 -65.2197 1.0426 27.3145 -0.253342 7.95606 -0.211625 0.993454 0.310854 -12.9802 -7.30773 0.0 0.0 0.0 -12.2039 21.5238 3.39734 -26.7595 0.154483 4.06644 39.1576 -4.849 -4.85613 0.661417 -0.0 -0.0 -0.0 0.0 -0.0 30.7885 14.2389 -5.80854 -10.1127 -0.282469 -1.52426 -17.8163 -19.5106 -2.72397 -37.4797 0.0 0.0 0.0 0.0 0.0 
2690.18328273 719.83 -1500.08734174 9.45222772922 80.2947025208 -10.3980095671 -0.26186 0.0115018 -0.249198 -0.261826 0.0273356 -0.247962 -0.261931 0.0799223 -0.236315 -0.262006 0.0415979 -0.245971 -4.03542 10.0317 1.61526 -3.94487 17.1259 3.25399 -0.0 0.0 -0.0 3.14556 22.0273 7.00643 3.3162 -36.3397 58.4488 2.18976 -47.3215 0.959541 -82.5411 -8.14324 5.23832 -3.23163 24.7102 -8.52459 -0.0 0.0 -0.0 7.51174 22.034 -13.7283 -25.3525 5.98305 -65.2197 1.0426 27.3145 -0.253342 7.95606 -0.211625 0.993454 0.310854 -12.9802 -7.30773 0.0 0.0 0.0 -12.2039 21.5238 3.39734 -26.7595 0.154483 4.06644 39.1576 -4.849 -4.85613 0.661417 -0.0 -0.0 -0.0 0.0 -0.0 30.7885 14.2389 -5.80854 -10.1127 -0.282469 -1.52426 -17.8163 -19.5106 -2.72397 -37.4797 0.0 0.0 0.0 0.0 0.0 
2667.32461129 719.22 -1504.0528421 15.2822779315 80.5174338881 -16.4753449213 -0.330249 0.106236 -0.134759 -0.330246 0.114596 -0.127726 -0.330508 0.13946 -0.0999849 -0.330502 0.121919 -0.120755 -3.74011 9.93511 1.34925 -3.64151 17.1151 2.92719 -0.0 0.0 -0.0 2.36683 21.7869 5.88998 1.97297 -35.9274 59.5458 2.10483 -46.191 0.897671 -82.3958 -8.12492 5.24108 -3.16732 24.3897 -8.33858 -0.0 0.0 -0.0 7.65992 22.4555 -14.0167 -24.3663 6.33933 -65.3211 1.04883 27.4539 -0.256208 7.96869 -0.211851 0.99505 0.34274 -13.1032 -7.55744 0.0 0.0 0.0 -12.7332 20.8022 2.61416 -28.0007 0.115436 4.25293 38.5052 -4.6244 -4.79509 0.702154 -0.0 -0.0 -0.0 0.0 -0.0 29.8306 14.2582 -5.66958 -11.0899 -0.295413 -1.67364 -17.9926 -19.2695 -2.74901 -37.5078 0.0 0.0 0.0 0.0 0.0 
2651.58520621 733.674 -1509.78894852 17.8204006827 79.7267911266 -18.952031437 -0.346622 0.195765 -0.0731658 -0.346641 0.200024 -0.0605605 -0.34687 0.208384 -0.0159059 -0.346813 0.203257 -0.0486169 -3.18729 9.81638 0.995244 -3.07246 17.103 2.47215 -0.0 0.0 -0.0 1.41133 21.6 4.51815 -0.70586 -35.5164 60.4076 2.04697 -45.3932 0.856198 -82.2927 -8.11191 5.243 -3.11238 24.0519 -8.21361 -0.0 0.0 -0.0 7.82305 23.4763 -14.283 -22.997 6.82032 -65.0859 1.06334 27.7772 -0.262932 8.00195 -0.212443 0.999258 0.36509 -13.2246 -7.74583 0.0 0.0 0.0 -11.8697 19.3587 1.64277 -28.8794 0.0853556 4.38442 37.5175 -4.40023 -4.70265 0.583987 -0.0 -0.0 -0.0 0.0 -0.0 27.2989 13.9419 -6.22104 -12.5669 -0.310141 -1.89978 -18.0683 -18.7165 -2.75588 -37.4391 0.0 0.0 0.0 0.0 0.0 
2627.2158225 734.877 -1512.18770323 24.0968169655 79.3888638429 -25.001473387 -0.558875 0.242427 -0.0192878 -0.558907 0.243163 -0.00382235 -0.558943 0.238062 0.0496948 -0.558864 0.242923 0.0114735 -3.48861 9.32367 0.0246651 -3.37969 16.9857 1.43234 -0.0 0.0 -0.0 0.366147 21.6452 3.03498 -3.38945 -35.141 60.8487 1.96743 -44.2583 0.800121 -82.063 -8.08293 5.24721 -2.9577 23.4932 -7.6319 -0.0 0.0 -0.0 7.92037 24.1963 -14.4294 -22.0944 7.1229 -64.7923 1.07566 28.0501 -0.268698 8.01901 -0.212746 1.00142 0.385038 -13.139 -7.83951 0.0 0.0 0.0 -10.7284 18.0341 1.35787 -30.6392 0.0190529 4.64635 36.3187 -4.81805 -4.59728 0.413115 -0.0 -0.0 -0.0 0.0 -0.0 24.475 13.7143 -6.65699 -13.6862 -0.317415 -2.07136 -18.0761 -17.4799 -2.74725 -37.3724 0.0 0.0 0.0 0.0 0.0 
2627.80044383 734.877 -1514.74198872 22.3835870593 78.6134138208 -23.2562290889 -0.558875 0.242427 -0.0192878 -0.558907 0.243163 -0.00382235 -0.558943 0.238062 0.0496948 -0.558864 0.242923 0.0114735 -3.48861 9.32367 0.0246651 -3.37969 16.9857 1.43234 -0.0 0.0 -0.0 0.366147 21.6452 3.03498 -3.38945 -35.141 60.8487 1.96743 -44.2583 0.800121 -82.063 -8.08293 5.24721 -2.9577 23.4932 -7.6319 -0.0 0.0 -0.0 7.92037 24.1963 -14.4294 -22.0944 7.1229 -64.7923 1.07566 28.0501 -0.268698 8.01901 -0.212746 1.00142 0.385038 -13.139 -7.83951 0.0 0.0 0.0 -10.7284 18.0341 1.35787 -30.6392 0.0190529 4.64635 36.3187 -4.81805 -4.59728 0.413115 -0.0 -0.0 -0.0 0.0 -0.0 24.475 13.7143 -6.65699 -13.6862 -0.317415 -2.07136 -18.0761 -17.4799 -2.74725 -37.3724 0.0 0.0 0.0 0.0 0.0 
2598.90282361 732.152 -1513.50716466 25.0297256143 78.2085223605 -25.2056628887 -0.46642 -0.0981684 0.154264 -0.466413 -0.107786 0.147704 -0.466697 -0.137409 0.120635 -0.466698 -0.116633 0.140823 -3.36029 8.27793 -2.04051 -3.22439 16.6564 -0.885743 -0.0 0.0 -0.0 -0.299333 19.849 1.87464 -6.16108 -35.6262 61.918 1.66578 -39.5256 0.598533 -80.549 -7.89144 5.27201 -1.83093 21.5385 -2.08629 -0.0 0.0 -0.0 6.94154 26.8123 -12.0147 -20.3549 10.669 -66.0849 1.35213 33.8127 -0.410989 8.86032 -0.226892 1.10795 0.338984 -14.7235 -8.15413 0.0 0.0 0.0 -9.23521 12.7226 1.47326 -34.2484 -0.14196 5.17665 36.0311 -3.14765 -4.54819 1.20521 -0.0 -0.0 -0.0 0.0 -0.0 22.2041 13.7139 -7.56498 -14.3741 -0.320223 -2.17687 -15.6852 -12.5358 -2.35765 -38.8745 0.0 0.0 0.0 0.0 0.0 
2589.29834767 738.77 -1515.40530386 20.7018013096 76.6259839918 -21.0266186226 -0.384246 0.143088 0.263805 -0.384216 0.126012 0.272375 -0.383581 0.06399 0.293211 -0.383684 0.109494 0.279425 -2.90467 7.71325 -1.89521 -2.77552 15.4884 -0.87663 -0.0 0.0 -0.0 -0.842206 19.3666 1.01041 -8.00023 -35.9117 62.2942 1.51553 -36.8949 0.50557 -80.4647 -7.88076 5.27324 -1.14765 18.7086 0.664487 -0.0 0.0 -0.0 6.97004 28.1687 -11.9304 -19.1801 12.063 -66.1099 1.4534 35.7506 -0.468765 10.0593 -0.244344 1.26011 0.374315 -14.7201 -8.37476 0.0 0.0 0.0 -4.87207 10.8957 0.860211 -39.5421 -0.43789 5.93408 35.3682 -3.14482 -4.48496 1.49549 -0.0 -0.0 -0.0 0.0 -0.0 21.2794 13.7332 -8.1507 -13.3357 -0.315498 -2.01762 -11.8265 -8.35804 -1.76719 -39.4099 0.0 0.0 0.0 0.0 0.0 
